# xmcd
# 
# Track frame offsets:
#     150
#     15160
#     28960
#     43537
#     57545
#     65377
#     84057
#     95922
#     131192
#     143755
#     157190
#     173290
#     179362
#     191432
#     204692
#     219885
#     245102
#     261655
#     276575
#     301250
#     321425
#     338495
# 
# Disc length: 4563
# 
# Revision: 18
# Processed by: cddbd v1.5.2PL0 Copyright (c) Steve Scherf et al.
# Submitted via: fre:ac v1.0.31
# 
DISCID=4811d116
DTITLE=The Blues Brothers - The Very Best Of The Blues Brothers
DYEAR=1995
DGENRE=Blues
TTITLE0=Everybody Needs Somebody To Love
TTITLE1=Gimme Some Lovin'
TTITLE2=Think (featuring Aretha Franklin)
TTITLE3=Soul Man
TTITLE4=Soul Finger (including "Funky Broadway")
TTITLE5=She Caught The Katy
TTITLE6=Theme From Rawhide
TTITLE7=Sweet Home Chicago
TTITLE8=Shake Your Tailfeather (featuring Ray Charles)
TTITLE9=Hey Bartender
TTITLE10=Messin' With The Kid
TTITLE11=Opening: I Can't Turn You Loose
TTITLE12=(I Got Every Thing I Need) Almost
TTITLE13=The Old Landmark (featuring James Brown)
TTITLE14=Minnie The Moocher (featuring Cab Calloway)
TTITLE15=Green Onions
TTITLE16=Guilty
TTITLE17=Riot In Cell Block Number Nine
TTITLE18=Shot Gun Blues
TTITLE19='B' Movie Box Car Blues
TTITLE20=Peter Gunn Theme
TTITLE21=Closing: I Can't Turn You Loose
EXTD=YEAR: 1995
EXTT0=
EXTT1=
EXTT2=
EXTT3=
EXTT4=
EXTT5=
EXTT6=
EXTT7=
EXTT8=
EXTT9=
EXTT10=
EXTT11=
EXTT12=
EXTT13=
EXTT14=
EXTT15=
EXTT16=
EXTT17=
EXTT18=
EXTT19=
EXTT20=
EXTT21=
PLAYORDER=
